<svg width="20" height="21" viewBox="0 0 20 21" fill="none" xmlns="http://www.w3.org/2000/svg">
    <path fill-rule="evenodd" clip-rule="evenodd" d="M12.293 6.20206C12.4805 6.01459 12.7348 5.90927 13 5.90927C13.2652 5.90927 13.5195 6.01459 13.707 6.20206L17.707 10.2021C17.8945 10.3896 17.9998 10.6439 17.9998 10.9091C17.9998 11.1742 17.8945 11.4285 17.707 11.6161L13.707 15.6161C13.5184 15.7982 13.2658 15.899 13.0036 15.8967C12.7414 15.8945 12.4906 15.7893 12.3052 15.6039C12.1198 15.4185 12.0146 15.1677 12.0123 14.9055C12.01 14.6433 12.1108 14.3907 12.293 14.2021L14.586 11.9091H3C2.73478 11.9091 2.48043 11.8037 2.29289 11.6162C2.10536 11.4286 2 11.1743 2 10.9091C2 10.6438 2.10536 10.3895 2.29289 10.202C2.48043 10.0144 2.73478 9.90906 3 9.90906H14.586L12.293 7.61606C12.1055 7.42853 12.0002 7.17422 12.0002 6.90906C12.0002 6.64389 12.1055 6.38959 12.293 6.20206V6.20206Z" fill="white"/>
</svg>

